<svg width="128" height="128" style="fill-rule:evenodd;clip-rule:evenodd;stroke-linejoin:round;stroke-miterlimit:2;" version="1.1" viewBox="0 0 128 128" xml:space="preserve" xmlns="http://www.w3.org/2000/svg" xmlns:serif="http://www.serif.com/" xmlns:xlink="http://www.w3.org/1999/xlink"><path d="M63.994,1.61l-63.084,110.852c-1.245,2.183 0.31,4.93 2.8,4.93l126.58,0c2.49,0 4.045,-2.747 2.8,-4.93l-63.084,-110.852c-1.245,-2.183 -4.355,-2.183 -5.6,0l0,0.438c0,0 0,-0.146 0,-0.438Z" style="fill:#363d52;"/><path d="M63.994,1.61l-63.084,110.852c-1.245,2.183 0.31,4.93 2.8,4.93l126.58,0c2.49,0 4.045,-2.747 2.8,-4.93l-63.084,-110.852c-1.245,-2.183 -4.355,-2.183 -5.6,0l0,0.438c0,0 0,-0.146 0,-0.438Z" style="fill:url(#_Linear1);"/><defs><linearGradient gradientTransform="matrix(0,-120.12,120.12,0,64.08,118.05)" gradientUnits="userSpaceOnUse" id="_Linear1" x1="0" x2="1" y1="0" y2="0"><stop offset="0" style="stop-color:#b4ffff;stop-opacity:1"/><stop offset="1" style="stop-color:#4fa6ff;stop-opacity:1"/></linearGradient></defs></svg>